<svg fill='#CCB69B' id="Layer_1" enable-background="new 0 0 512 512" height="512" viewBox="0 0 512 512" width="512" xmlns="http://www.w3.org/2000/svg"><path d="m428.5 256c6.656-6.846 12.83-13.708 18.472-20.547 35.193-42.66 46.107-80.82 30.73-107.453-15.376-26.633-53.879-36.263-108.422-27.113-8.743 1.467-17.773 3.383-27.03 5.724-2.601-9.187-5.457-17.965-8.558-26.271-19.348-51.808-46.939-80.34-77.692-80.34s-58.344 28.532-77.692 80.34c-3.102 8.305-5.957 17.083-8.558 26.271-9.257-2.341-18.287-4.257-27.03-5.724-54.542-9.15-93.046.48-108.422 27.113-15.377 26.633-4.463 64.793 30.73 107.453 5.642 6.839 11.816 13.701 18.472 20.547-6.656 6.846-12.83 13.708-18.472 20.547-35.193 42.66-46.107 80.82-30.73 107.453 11.586 20.069 36.304 30.482 71.122 30.482 11.388 0 23.857-1.114 37.3-3.369 8.743-1.467 17.773-3.383 27.03-5.724 2.601 9.187 5.457 17.965 8.558 26.271 19.348 51.808 46.939 80.34 77.692 80.34s58.344-28.532 77.692-80.34c3.102-8.305 5.957-17.083 8.558-26.271 9.257 2.341 18.287 4.257 27.03 5.724 13.446 2.255 25.91 3.369 37.3 3.369 34.813 0 59.537-10.415 71.122-30.482 15.377-26.633 4.463-64.793-30.73-107.453-5.642-6.839-11.816-13.701-18.472-20.547zm-54.257-125.526c12.064-2.024 23.119-3.015 32.911-3.015 22.757 0 38.686 5.354 44.568 15.541 8.412 14.57-2.014 41.996-27.891 73.362-5.185 6.285-10.869 12.601-17.006 18.911-14.663-13.095-30.94-25.979-48.477-38.363-1.957-21.379-4.976-41.918-8.985-61.163 8.533-2.161 16.845-3.926 24.88-5.273zm-80.743 190.478c-12.484 7.208-25.026 13.896-37.5 20.017-12.474-6.121-25.016-12.809-37.5-20.017s-24.547-14.725-36.085-22.468c-.936-13.863-1.415-28.068-1.415-42.484s.479-28.621 1.415-42.484c11.538-7.743 23.601-15.26 36.085-22.468s25.026-13.896 37.5-20.017c12.474 6.121 25.016 12.809 37.5 20.017s24.547 14.725 36.085 22.468c.936 13.863 1.415 28.068 1.415 42.484s-.479 28.621-1.415 42.484c-11.538 7.743-23.601 15.26-36.085 22.468zm32.239 15.681c-1.454 10.701-3.202 21.091-5.23 31.099-9.681-3.247-19.553-6.929-29.548-11.02 5.856-3.15 11.706-6.412 17.539-9.78 5.833-3.367 11.583-6.803 17.239-10.299zm-104.7 20.079c-9.995 4.091-19.867 7.773-29.548 11.02-2.029-10.007-3.776-20.398-5.23-31.099 5.656 3.496 11.405 6.931 17.239 10.299 5.833 3.369 11.684 6.63 17.539 9.78zm-69.739-80.633c-8.54-6.61-16.665-13.318-24.317-20.079 7.652-6.761 15.777-13.469 24.317-20.079-.199 6.646-.3 13.343-.3 20.079s.101 13.433.3 20.079zm34.961-100.712c1.454-10.701 3.202-21.091 5.23-31.099 9.681 3.247 19.553 6.929 29.548 11.02-5.856 3.15-11.706 6.412-17.539 9.78-5.833 3.367-11.583 6.803-17.239 10.299zm104.7-20.079c9.995-4.091 19.867-7.773 29.548-11.02 2.029 10.007 3.776 20.398 5.23 31.099-5.656-3.496-11.405-6.931-17.239-10.299-5.833-3.369-11.684-6.63-17.539-9.78zm69.739 80.633c8.54 6.61 16.665 13.318 24.317 20.079-7.652 6.761-15.777 13.469-24.317 20.079.199-6.646.3-13.343.3-20.079s-.101-13.433-.3-20.079zm-154.287-145.086c14.225-38.093 32.762-60.835 49.587-60.835s35.362 22.742 49.587 60.835c2.851 7.633 5.478 15.713 7.874 24.183-18.672 6.151-37.969 13.806-57.462 22.8-19.493-8.995-38.789-16.65-57.462-22.8 2.398-8.47 5.025-16.55 7.876-24.183zm-146.135 52.165c5.882-10.188 21.808-15.541 44.568-15.541 9.79 0 20.849.991 32.911 3.015 8.036 1.348 16.347 3.113 24.88 5.272-4.01 19.246-7.028 39.785-8.985 61.163-17.536 12.384-33.814 25.268-48.477 38.363-6.137-6.31-11.821-12.626-17.006-18.911-25.877-31.365-36.303-58.791-27.891-73.361zm77.479 238.526c-40.103 6.728-69.066 2.044-77.479-12.526-8.412-14.57 2.014-41.996 27.891-73.362 5.185-6.285 10.869-12.601 17.006-18.911 14.663 13.095 30.94 25.979 48.477 38.363 1.957 21.379 4.976 41.918 8.985 61.163-8.533 2.161-16.845 3.926-24.88 5.273zm167.83 39.639c-14.225 38.093-32.762 60.835-49.587 60.835s-35.362-22.742-49.587-60.835c-2.851-7.633-5.478-15.713-7.874-24.183 18.672-6.151 37.969-13.806 57.462-22.8 19.493 8.995 38.789 16.65 57.462 22.8-2.398 8.47-5.025 16.55-7.876 24.183zm146.135-52.165c-8.413 14.57-37.375 19.254-77.479 12.526-8.036-1.348-16.347-3.113-24.88-5.272 4.01-19.246 7.028-39.785 8.985-61.163 17.536-12.384 33.814-25.268 48.477-38.363 6.137 6.31 11.821 12.626 17.006 18.911 25.877 31.365 36.303 58.791 27.891 73.361z"/><path d="m256 209.657c-25.554 0-46.343 20.789-46.343 46.343s20.789 46.343 46.343 46.343 46.343-20.789 46.343-46.343-20.789-46.343-46.343-46.343zm0 62.686c-9.011 0-16.343-7.332-16.343-16.343s7.332-16.343 16.343-16.343 16.343 7.332 16.343 16.343-7.332 16.343-16.343 16.343z"/></svg>