<svg id="Capa_1" enable-background="new 0 0 510 510" height="512" viewBox="0 0 510 510" width="512" xmlns="http://www.w3.org/2000/svg"><path d="m495 103.4c-16.012 0-472.591 0-480 0-8.284 0-15 6.716-15 15v87.963c0 8.284 6.716 15 15 15 18.552 0 33.646 15.089 33.646 33.636s-15.094 33.637-33.646 33.637c-8.284 0-15 6.716-15 15v87.964c0 8.284 6.716 15 15 15h480c8.284 0 15-6.716 15-15v-273.2c0-8.284-6.716-15-15-15zm-465 213.451c27.881-6.759 48.646-31.925 48.646-61.851s-20.765-55.092-48.646-61.851v-59.749h155.658v243.2h-155.658zm450 59.749h-264.342v-243.2h264.342z"/><path d="m320.321 192.932-25.895-2.111c-21.423-1.747-37.601 19.06-30.67 39.377l8.46 24.803-8.46 24.803c-6.94 20.345 9.291 41.122 30.669 39.376l25.895-2.111 20.963 17.767c16.143 13.681 41.024 6.652 47.638-13.431l9.243-28.064 20.081-13.673c17.385-11.836 17.376-37.501 0-49.333l-20.081-13.673-9.243-28.064c-6.619-20.099-31.507-27.101-47.638-13.431zm49.367 33.164c2.044 6.207 6.145 11.652 11.548 15.331l19.932 13.573-19.934 13.572c-5.402 3.679-9.502 9.124-11.547 15.331l-9.188 27.892-20.832-17.655c-6.072-5.147-13.786-7.625-21.72-6.979l-25.72 2.096 8.399-24.623c2.119-6.213 2.119-13.055 0-19.269l-8.398-24.625 25.719 2.098c7.934.646 15.647-1.831 21.719-6.978l20.833-17.655z"/><path d="m123.556 210h14.041c8.284 0 15-6.716 15-15s-6.716-15-15-15h-14.041c-8.284 0-15 6.716-15 15s6.715 15 15 15z"/><path d="m137.597 240h-14.041c-8.284 0-15 6.716-15 15s6.716 15 15 15h14.041c8.284 0 15-6.716 15-15s-6.716-15-15-15z"/><path d="m137.597 300h-14.041c-8.284 0-15 6.716-15 15s6.716 15 15 15h14.041c8.284 0 15-6.716 15-15s-6.716-15-15-15z"/></svg>